<svg width="94" height="43" viewBox="0 0 94 43" fill="none" xmlns="http://www.w3.org/2000/svg">
<path d="M42.2069 21.1035C42.2069 32.7586 32.7586 42.2069 21.1035 42.2069C9.44834 42.2069 0 32.7586 0 21.1035C0 9.44834 9.44834 0 21.1035 0C32.7586 0 42.2069 9.44834 42.2069 21.1035Z" fill="#0A2540"/>
<path d="M12.313 10.3976C8.78137 17.2658 9.93104 18.6207 6.82759 21.7241C6.872 21.6797 9.52796 19.2153 9.57077 19.1694L12.2555 16.2874C12.9341 15.5589 13.8823 15.1446 14.8778 15.1493C20.8596 15.1781 30.5553 15.339 31.1173 15.1451C33.5423 14.3085 33.5433 12.6348 33.5437 11.7956V11.7941C33.5441 11.1796 33.5434 9.58019 31.6747 8.67175C31.3159 8.49736 30.9132 8.44219 30.5143 8.44217L15.5078 8.44148C14.1641 8.44142 12.9275 9.20257 12.313 10.3976Z" fill="white"/>
<path d="M13.9637 20.5384C12.1599 22.813 11.8294 25.8616 11.6069 25.9094L14.5084 25.2855C14.7562 25.2322 15.0075 25.2053 15.261 25.2057C19.9606 25.2147 28.8052 25.3784 29.2889 25.2054C31.2521 24.5031 31.2528 23.0983 31.2532 22.3938V22.3926C31.2535 21.8905 31.253 20.6052 29.8578 19.8339C29.4968 19.6343 29.0776 19.5791 28.6651 19.5791L16.2109 19.5785C15.353 19.5784 14.4968 19.8662 13.9637 20.5384Z" fill="white"/>
<path d="M9.39189 35.0569C8.38252 35.3921 7.45006 35.3949 7.38621 35.406L9.39189 35.0569C9.99993 34.8549 10.6359 34.5324 11.1267 34.0147C12.8603 32.1861 14.1424 29.0751 16.6622 29.0752L28.7183 29.0756C29.0566 29.0756 29.3971 29.1161 29.7123 29.2389C31.6548 29.9958 31.6555 31.3667 31.6552 31.8891V31.8904C31.6547 32.5948 31.6538 33.9997 29.2287 34.7019C28.6255 34.8766 17.498 34.7081 11.7368 34.7021C11.5306 34.7019 11.3288 34.7197 11.1256 34.7551L9.39189 35.0569Z" fill="white"/>
<path d="M53.2393 17.2967C54.0699 17.2967 54.7721 17.4153 55.3456 17.6527C55.9192 17.8702 56.3741 18.1372 56.7103 18.4537C57.0663 18.7504 57.3333 19.047 57.5113 19.3437C57.6893 19.6206 57.808 19.8283 57.8673 19.9667H58.075L58.5794 17.5933H63.1184L59.7957 33.3169H55.2863L55.672 31.3886H55.4643C55.4643 31.3886 55.3852 31.5073 55.227 31.7446C55.0687 31.9621 54.8116 32.2193 54.4556 32.5159C54.0996 32.7928 53.6348 33.0499 53.0613 33.2873C52.5075 33.5048 51.8152 33.6136 50.9846 33.6136C49.6594 33.6136 48.5617 33.2972 47.6915 32.6643C46.841 32.0314 46.1983 31.2106 45.7631 30.2019C45.3478 29.1734 45.1401 28.0659 45.1401 26.8792C45.1401 25.7518 45.3181 24.6245 45.6741 23.4971C46.0301 22.3698 46.5543 21.3413 47.2465 20.4117C47.9387 19.4624 48.7892 18.7108 49.7979 18.157C50.8066 17.5835 51.9537 17.2967 53.2393 17.2967ZM54.1293 20.9457C53.1997 20.9457 52.3987 21.2325 51.7262 21.8061C51.0538 22.3599 50.5396 23.062 50.1835 23.9125C49.8275 24.7629 49.6495 25.6035 49.6495 26.4342C49.6495 27.3835 49.8869 28.2142 50.3615 28.9262C50.856 29.6184 51.6273 29.9646 52.6756 29.9646C53.5854 29.9646 54.3765 29.6877 55.049 29.1339C55.7214 28.5603 56.2357 27.8582 56.5917 27.0275C56.9477 26.177 57.1257 25.3266 57.1257 24.4761C57.1257 23.5268 56.8784 22.706 56.384 22.0138C55.9093 21.3017 55.1577 20.9457 54.1293 20.9457Z" fill="#0A2540"/>
<path d="M69.1618 33.6136C67.8169 33.6136 66.7093 33.4356 65.839 33.0796C64.9688 32.7236 64.2865 32.2786 63.792 31.7446C63.3173 31.2106 62.9613 30.6865 62.724 30.1722C62.5064 29.6382 62.368 29.1932 62.3086 28.8372C62.2493 28.4614 62.2196 28.2735 62.2196 28.2735H66.5807C66.5807 28.2735 66.6104 28.3724 66.6697 28.5702C66.7291 28.768 66.8477 28.9954 67.0257 29.2525C67.2235 29.5097 67.5103 29.7371 67.8861 29.9349C68.2816 30.1327 68.8156 30.2316 69.4881 30.2316C70.299 30.2316 70.8924 30.0832 71.2681 29.7866C71.6637 29.4701 71.8615 29.1042 71.8615 28.6889C71.8615 28.2933 71.7131 27.9966 71.4165 27.7989C71.1396 27.6011 70.7836 27.433 70.3485 27.2945L68.3311 26.7902C67.0653 26.4539 66.0665 25.9298 65.3347 25.2178C64.6227 24.486 64.2667 23.5663 64.2667 22.4588C64.2667 21.5292 64.5238 20.6787 65.038 19.9074C65.5523 19.1163 66.2939 18.4834 67.2631 18.0087C68.2322 17.534 69.4189 17.2967 70.8231 17.2967C72.0296 17.2967 73.0284 17.4648 73.8195 17.801C74.6106 18.1372 75.2337 18.5526 75.6885 19.047C76.1632 19.5217 76.5093 20.0063 76.7269 20.5007C76.9642 20.9754 77.1126 21.3809 77.1719 21.7171C77.251 22.0533 77.2906 22.2214 77.2906 22.2214H73.1075C73.1075 22.2214 73.0482 22.0929 72.9295 21.8358C72.8108 21.5786 72.5735 21.3215 72.2175 21.0644C71.8615 20.7875 71.3077 20.6491 70.5561 20.6491C69.8441 20.6491 69.3002 20.7974 68.9244 21.0941C68.5684 21.3907 68.3904 21.7468 68.3904 22.1621C68.3904 22.5181 68.5289 22.8049 68.8058 23.0224C69.0827 23.24 69.4584 23.418 69.9331 23.5564L71.7131 24.0311C73.0185 24.3278 74.0667 24.8519 74.8579 25.6035C75.6688 26.3551 76.0742 27.3143 76.0742 28.4812C76.0742 29.4108 75.8072 30.2711 75.2732 31.0622C74.7392 31.8336 73.958 32.4566 72.9295 32.9313C71.901 33.3862 70.6451 33.6136 69.1618 33.6136Z" fill="#0A2540"/>
<path d="M85.0187 33.6136C83.3375 33.6136 81.9629 33.2774 80.8949 32.6049C79.8269 31.9325 79.0358 31.0524 78.5216 29.9646C78.0073 28.8768 77.7502 27.7099 77.7502 26.4638C77.7502 25.3563 77.9381 24.2685 78.3139 23.2004C78.7094 22.1126 79.283 21.1237 80.0346 20.2337C80.8059 19.3437 81.7454 18.6317 82.853 18.0977C83.9803 17.5637 85.2758 17.2967 86.7394 17.2967C88.1634 17.2967 89.3402 17.5637 90.2698 18.0977C91.2191 18.6119 91.9509 19.3042 92.4651 20.1744C92.9794 21.0446 93.2958 21.994 93.4145 23.0224C93.5529 24.0509 93.5233 25.0596 93.3255 26.0485L93.2068 26.6418H82.2003C82.2201 27.7099 82.4871 28.5801 83.0013 29.2525C83.5155 29.9052 84.2869 30.2316 85.3153 30.2316C85.9285 30.2316 86.4328 30.1327 86.8284 29.9349C87.2437 29.7371 87.5701 29.5097 87.8074 29.2525C88.0447 28.9954 88.2128 28.768 88.3117 28.5702C88.4304 28.3526 88.4897 28.2439 88.4897 28.2439H92.7025C92.7025 28.2439 92.6332 28.4318 92.4948 28.8075C92.3564 29.1635 92.119 29.6086 91.7828 30.1426C91.4466 30.6766 90.9818 31.2106 90.3884 31.7446C89.8149 32.2786 89.0831 32.7236 88.1931 33.0796C87.303 33.4356 86.2449 33.6136 85.0187 33.6136ZM82.6156 23.9125H89.3798C89.4984 23.062 89.3204 22.3104 88.8457 21.6577C88.3711 21.0051 87.6096 20.6787 86.5614 20.6787C85.5725 20.6787 84.7319 20.9952 84.0397 21.6281C83.3672 22.2412 82.8925 23.0027 82.6156 23.9125Z" fill="#0A2540"/>
</svg>